<?xml version="1.0" encoding="utf-8"?>
<!-- Generator: Adobe Illustrator 20.1.0, SVG Export Plug-In . SVG Version: 6.00 Build 0)  -->
<svg version="1.1" id="Layer_1" xmlns="http://www.w3.org/2000/svg" xmlns:xlink="http://www.w3.org/1999/xlink" x="0px" y="0px"
	 viewBox="0 0 32.3 34.4" style="enable-background:new 0 0 32.3 34.4;" xml:space="preserve">
<style type="text/css">
	.st0{fill:#FFFFFF;}
</style>
<path class="st0" d="M31.4,7.4c0.9,2.2,1.1,4.4,0.5,6.4l-7.3,20.5L5,27.2c-1.9-0.9-3.3-2.3-4.2-4.4c-1-2.2-1-4.6-0.1-7.1
	s2.5-4.3,4.7-5.4c2.1-1.1,4.2-1.4,6.5-0.9c7,2,9.8,5.4,8.4,10.4c-2.3-3.3-5-5.3-8.2-6C9,13,6.9,14.1,5.8,17c-1,2.9-0.4,4.9,1.8,6
	l14,5.2l5.6-15.6c0.4-1.4,0.2-2.7-0.5-3.9c-0.8-1.5-2-2.5-3.6-3.1c-1.8-0.7-3.4-0.7-4.9,0c-1.3,0.6-2.1,1.3-2.4,2.3l-4.9-1.6
	c1-2.5,2.8-4.2,5.6-5.3c2.6-1.2,5.4-1.3,8.3-0.2c2.6,1,4.7,2.9,6.3,5.7C31.1,6.7,31.2,7,31.4,7.4z"/>
</svg>
