<svg id="Layer_1" data-name="Layer 1" xmlns="http://www.w3.org/2000/svg" viewBox="0 0 230 40.09"><defs><style>.cls-1{fill:#555;}.cls-2{fill:#dc2636;fill-rule:evenodd;}</style></defs><title>ApptentiveLogo</title><path class="cls-1" d="M52.84,30.67l-2-6.66H40.6l-2,6.66h-6.4L42.05,2.55h7.26l9.92,28.12h-6.4ZM49.39,19Q46.57,10,46.22,8.78T45.71,6.9Q45.08,9.35,42.09,19h7.3Z"/><path class="cls-1" d="M72.09,31.05a7.1,7.1,0,0,1-5.92-2.74H65.87q0.31,2.68.31,3.1v8.68H60.34V9.26h4.75L65.91,12h0.27a6.76,6.76,0,0,1,6.07-3.18,7,7,0,0,1,5.94,2.93q2.14,2.93,2.14,8.14a16.08,16.08,0,0,1-1,6,8.36,8.36,0,0,1-2.86,3.85A7.34,7.34,0,0,1,72.09,31.05ZM70.37,13.53a3.69,3.69,0,0,0-3.16,1.33,7.64,7.64,0,0,0-1,4.4v0.63a9,9,0,0,0,1,4.94,3.66,3.66,0,0,0,3.25,1.49q3.93,0,3.93-6.47a9.25,9.25,0,0,0-1-4.74A3.3,3.3,0,0,0,70.37,13.53Z"/><path class="cls-1" d="M95,31.05A7.1,7.1,0,0,1,89,28.31H88.73Q89,31,89,31.41v8.68H83.2V9.26h4.75L88.77,12H89a6.76,6.76,0,0,1,6.07-3.18A7,7,0,0,1,101,11.78q2.14,2.93,2.14,8.14a16.07,16.07,0,0,1-1,6,8.36,8.36,0,0,1-2.86,3.85A7.34,7.34,0,0,1,95,31.05ZM93.23,13.53a3.69,3.69,0,0,0-3.16,1.33,7.65,7.65,0,0,0-1,4.4v0.63a9,9,0,0,0,1,4.94,3.66,3.66,0,0,0,3.25,1.49q3.93,0,3.93-6.47a9.25,9.25,0,0,0-1-4.74A3.3,3.3,0,0,0,93.23,13.53Z"/><path class="cls-1" d="M115.08,26.4a12.65,12.65,0,0,0,3.68-.67v4.35a13.11,13.11,0,0,1-5.36,1q-3.5,0-5.1-1.77a7.71,7.71,0,0,1-1.6-5.31V13.64h-2.8V11.17l3.22-2,1.69-4.52h3.73V9.26h6v4.39h-6V24a2.28,2.28,0,0,0,.7,1.84A2.76,2.76,0,0,0,115.08,26.4Z"/><path class="cls-1" d="M130.81,31.05q-5.17,0-8.08-2.85t-2.91-8.08q0-5.38,2.69-8.32a9.58,9.58,0,0,1,7.44-2.94A9.43,9.43,0,0,1,137,11.44a9.78,9.78,0,0,1,2.53,7.14v2.83H125.74a5.63,5.63,0,0,0,1.47,3.89,5.19,5.19,0,0,0,3.87,1.4,16,16,0,0,0,3.66-.4,18.27,18.27,0,0,0,3.6-1.28v4.52a13.72,13.72,0,0,1-3.27,1.14A20.65,20.65,0,0,1,130.81,31.05ZM130,13a3.71,3.71,0,0,0-2.91,1.18,5.45,5.45,0,0,0-1.21,3.34h8.2a4.87,4.87,0,0,0-1.13-3.34A3.83,3.83,0,0,0,130,13Z"/><path class="cls-1" d="M162.1,30.67h-5.84V18.16a6,6,0,0,0-.82-3.48,3,3,0,0,0-2.62-1.16,3.94,3.94,0,0,0-3.54,1.64q-1.09,1.64-1.09,5.43V30.67h-5.84V9.26h4.46L147.58,12h0.32a6.18,6.18,0,0,1,2.69-2.35,9.16,9.16,0,0,1,3.9-.79,7.49,7.49,0,0,1,5.67,2,8.11,8.11,0,0,1,1.93,5.83v14Z"/><path class="cls-1" d="M175.17,26.4a12.66,12.66,0,0,0,3.68-.67v4.35a13.11,13.11,0,0,1-5.36,1q-3.5,0-5.1-1.77a7.71,7.71,0,0,1-1.6-5.31V13.64H164V11.17l3.22-2,1.69-4.52h3.73V9.26h6v4.39h-6V24a2.28,2.28,0,0,0,.7,1.84A2.76,2.76,0,0,0,175.17,26.4Z"/><path class="cls-1" d="M181,3.72q0-2.85,3.18-2.85t3.18,2.85a2.78,2.78,0,0,1-.8,2.12,3.34,3.34,0,0,1-2.38.76Q181,6.59,181,3.72Zm6.09,26.95h-5.84V9.26h5.84V30.67Z"/><path class="cls-1" d="M196.32,30.67L188.16,9.26h6.11l4.14,12.2a21.72,21.72,0,0,1,.86,4.39h0.12a19.05,19.05,0,0,1,.86-4.39l4.12-12.2h6.11l-8.16,21.41h-6Z"/><path class="cls-1" d="M221.27,31.05q-5.17,0-8.08-2.85t-2.91-8.08q0-5.38,2.69-8.32a9.58,9.58,0,0,1,7.44-2.94,9.43,9.43,0,0,1,7.07,2.59A9.78,9.78,0,0,1,230,18.58v2.83H216.19a5.63,5.63,0,0,0,1.47,3.89,5.19,5.19,0,0,0,3.87,1.4,16,16,0,0,0,3.66-.4,18.27,18.27,0,0,0,3.6-1.28v4.52a13.72,13.72,0,0,1-3.27,1.14A20.65,20.65,0,0,1,221.27,31.05Zm-0.82-18a3.71,3.71,0,0,0-2.91,1.18,5.45,5.45,0,0,0-1.21,3.34h8.2a4.87,4.87,0,0,0-1.13-3.34A3.83,3.83,0,0,0,220.44,13Z"/><path class="cls-2" d="M27.72,6.55a8.29,8.29,0,0,1,.44,5.68l-6.49,18.1L4.41,24a7.31,7.31,0,0,1-3.72-3.9,8,8,0,0,1-.09-6.27A8.08,8.08,0,0,1,4.76,9.12a8.2,8.2,0,0,1,5.74-.79q9.29,2.58,7.41,9.21a12.08,12.08,0,0,0-7.23-5.26q-4.16-1.05-5.57,2.85t1.58,5.26L19,24.94l5-13.76a4.49,4.49,0,0,0-.44-3.46A5.77,5.77,0,0,0,20.36,5,5.48,5.48,0,0,0,16,5a3.44,3.44,0,0,0-2.15,2L9.58,5.53A8.35,8.35,0,0,1,14.49.84,9.33,9.33,0,0,1,21.81.66a10.53,10.53,0,0,1,5.52,5Q27.46,6,27.72,6.55Z"/></svg>