<svg id="Layer_1" data-name="Layer 1" xmlns="http://www.w3.org/2000/svg" viewBox="0 0 124.66 124.66"><defs><style>.cls-1{fill:#dc2636;}.cls-1,.cls-2{fill-rule:evenodd;}.cls-2{fill:#fff;}</style></defs><title>LogoIcon</title><path class="cls-1" d="M124.32,53.55A62.32,62.32,0,1,0,17.61,105.7L11,124.76l18.3-9.48A62.3,62.3,0,0,0,124.32,53.55Z" transform="translate(-0.34 -0.34)"/><path class="cls-2" d="M99.62,54.44A20.41,20.41,0,0,1,95,67.71l-32.49,34.5L29.74,70.93a18,18,0,0,1-4.56-12.49,19.75,19.75,0,0,1,6-14.25,19.9,19.9,0,0,1,14.09-6.58A20.21,20.21,0,0,1,59,41.49q18.44,15,7.66,28.1Q64,56.75,55.47,50.58q-8.36-6.48-15.39,1T38.47,65L61.9,87.42,86.65,61.23A11.08,11.08,0,0,0,89.07,53a14.21,14.21,0,0,0-4.56-9.3,13.49,13.49,0,0,0-9.75-4.37q-4.69,0-6.85,2.44l-8.27-7.5q6.17-6,15.7-5.76a23,23,0,0,1,16.71,6.83q6.47,6.24,7.5,16.81c0,0.48,0,1.25.06,2.31" transform="translate(-0.34 -0.34)"/></svg>